<?xml version="1.0" standalone="yes"?>
<svg width="250" height="250">
<path style="fill:#fffffd; stroke:none;" d="M0 0L0 250L250 250L250 0L0 0z"/>
<path style="fill:#040502; stroke:none;" d="M113 100C106.042 100 90.0872 103.377 84.3248 99.9715C80.081 97.4632 77.3333 91.5587 73.9105 88.0394C67.6301 81.5818 60.0821 76.1985 52 72.2593C48.3357 70.4733 43.2049 67.3996 39.0039 68.7855C31.1267 71.384 25.2646 84.1764 21.6404 91C7.41983 117.775 8.42659 152.208 19.0648 180C26.7542 200.088 40.4311 206.815 60 213.333C88.9797 222.986 124.55 224.905 154 216.201C172.091 210.855 185.177 207.55 194.691 190C203.831 173.14 208.309 152.118 205.572 133C204.405 124.855 196.746 110.529 198.132 103.059C199.236 97.107 211.523 99.0797 216 97.3812C229.112 92.4068 249.005 68.4656 238.012 53.3179C232.343 45.5067 214.015 54.8342 206.39 49.9722C201.941 47.1351 199.492 39.1591 196.181 35.0039C188.763 25.6943 178.495 19.9973 167 17.4252C135.186 10.3062 105.899 35.1171 104.093 67C103.404 79.1709 108.373 89.2063 113 100z"/>
<path style="fill:#fcfc01; stroke:none;" d="M148 28.4676C122.464 33.2851 110.419 62.0325 118.877 85C121.105 91.0511 137.069 104.965 130.681 110.397C127.603 113.014 121.742 112.041 118 111.996C108.955 111.889 100.08 111.2 91 112.285C85.9919 112.884 80.4059 114.872 76.3897 110.768C68.1691 102.368 63.5107 92.603 53 86.0656C49.9395 84.162 44.9443 80.4383 41.3002 82.7083C34.8811 86.7069 30.6323 98.2336 28.064 105C20.4255 125.124 21.664 148.678 27.7207 169C29.8209 176.047 32.6668 185.48 38.213 190.61C45.126 197.003 57.1157 200.582 66 203.14C91.1185 210.372 118.333 212.032 144 206.715C153.679 204.709 169.06 202.133 176.674 195.501C192.94 181.332 196.154 151.846 193.714 132C192.491 122.055 185.158 112.459 184.538 103C184.029 95.2385 194.452 85.6569 195.7 77C199.758 48.8521 177.447 22.912 148 28.4676z"/>
<path style="fill:#040502; stroke:none;" d="M164.004 46.7431C150.847 51.7708 159.49 71.1362 171.985 65.99C184.95 60.6498 176.491 41.9714 164.004 46.7431z"/>
<path style="fill:#fcfc01; stroke:none;" d="M239.333 56.6667C239.278 56.7222 239.222 57.7778 239.667 57.3333C239.722 57.2778 239.778 56.2222 239.333 56.6667z"/>
<path style="fill:#fd0101; stroke:none;" d="M207 59C209.227 70.9932 205.71 80.3804 204 92C222.438 90.3923 231.951 76.6695 232 59L207 59z"/>
<path style="fill:#fcfc01; stroke:none;" d="M239 66L239 69C239.696 67.4463 239.696 67.5537 239 66M104 73L104 76C104.696 74.4463 104.696 74.5537 104 73M90.6667 100.333C90.2222 100.778 91.2778 100.722 91.3333 100.667C91.7778 100.222 90.7222 100.278 90.6667 100.333M12.3333 119.667C12.2778 119.722 12.2222 120.778 12.6667 120.333C12.7222 120.278 12.7778 119.222 12.3333 119.667M204.333 125.667C204.278 125.722 204.222 126.778 204.667 126.333C204.722 126.278 204.778 125.222 204.333 125.667M205.333 131.667C205.278 131.722 205.222 132.778 205.667 132.333C205.722 132.278 205.778 131.222 205.333 131.667M11 144L11 147C11.6961 145.446 11.6961 145.554 11 144M204 161L204 164C204.696 162.446 204.696 162.554 204 161z"/>
</svg>
